<?xml version="1.0" encoding="UTF-8"?>
<svg width="2160px" height="510px" viewBox="0 0 2160 510" version="1.1" xmlns="http://www.w3.org/2000/svg" xmlns:xlink="http://www.w3.org/1999/xlink">
    <!-- Generator: Sketch 39.1 (31720) - http://www.bohemiancoding.com/sketch -->
    <title>Slice 2</title>
    <desc>Created with Sketch.</desc>
    <defs>
        <radialGradient cx="77.8913459%" cy="100%" fx="77.8913459%" fy="100%" r="125.474034%" id="radialGradient-1">
            <stop stop-color="#37A9C3" offset="0%"></stop>
            <stop stop-color="#27599F" offset="99.1569675%"></stop>
        </radialGradient>
    </defs>
    <g id="Page-2" stroke="none" stroke-width="1" fill="none" fill-rule="evenodd">
        <path d="M183,28.5 C204,29 225,29 246,29.5 C294,30.5 306,42 307.5,57 C307.5,59 308,60.5 308,62.5 C308.5,69.5 309.5,71 312,71 C314,71 315.5,69 315.5,64.5 C315.5,59 317,24.5 317,9.5 C317,6.5 317,3.5 314.5,3.5 C312.5,3.5 308,5 300.5,6 C292.5,7.5 281,8.5 265,8.5 L77.5,8.5 C71.5,8.5 52.5,7.5 38,6 C24.5,5 19.5,0 16,0 C14,0 12,6.5 11,9.5 C10,13.5 0,56.5 0,61.5 C0,64.5 1,66 2.5,66 C4.5,66 6,65 7.5,61 C9,57.5 10.5,54 16,45.5 C24,33.5 36,30 67,29.5 C91.5,29 116.5,29 141,28.5 L141,240 C141,288 141,327.5 138.5,348.5 C136.5,363 134,374 124,376 C119.5,377 113.5,378 109,378 C106,378 105,379.5 105,381 C105,384 107.5,385 113,385 C128,385 159.5,383.5 162,383.5 C164.5,383.5 196,385 223.5,385 C229,385 231.5,383.5 231.5,381 C231.5,379.5 230.5,378 227.5,378 C223,378 212,377 205,376 C190,374 187,363 185.5,348.5 C183,327.5 183,288 183,240 L183,28.5 Z M449.5,197.5 C448,197.5 446.5,197.5 446.5,195 L446.5,186 C446.5,120 446.5,109 447,95.5 C448,81.5 451,73 463.5,71 C469,70 470.5,70 473.5,70 C476.5,70 478.5,69 478.5,67 C478.5,64.5 476,63.5 471,63.5 C457,63.5 428,65 426,65 C419.5,65 395.5,63.5 374,63.5 C369,63.5 366.5,64 366.5,67 C366.5,68.5 368.5,70 372,70 C376,70 381,70.5 385.5,71 C400,72.5 403.5,82 404.5,95 C405.5,108.5 405.5,121.5 405.5,187.5 L405.5,261.5 C405.5,302.5 406,336 403,354 C401.5,365 399.5,374.5 390.5,376.5 C386.5,377.5 382.5,378 378.5,378 C374,378 373,380 373,381.5 C373,384 376,385 381,385 C394,385 424.5,383.5 426,383.5 C428.5,383.5 458,385 483.5,385 C488,385 490,383.5 490,381.5 C490,379.5 487.5,378 484,378 C480,378 472.5,377.5 466,376.5 C453,375 450.5,365 449,354 C446.5,336 446.5,303.5 446.5,263 L446.5,218.5 C446.5,216 447.5,215.5 449,215.5 L630.5,215.5 C632,215.5 633.5,216.5 633.5,218.5 L633.5,263 C633.5,303.5 633.5,335 631,353 C629.5,364.5 627,375.5 618.5,377 C614.5,378 611,378 607,378 C603,378 601.5,379.5 601.5,381 C601.5,384 604,385 609,385 C622.5,385 651.5,383.5 653.5,383.5 C656,383.5 685,385 710,385 C715,385 717.5,384 717.5,381.5 C717.5,379.5 715,378 711,378 C706.5,378 700,377.5 693.5,376.5 C680.5,375 678,365 676.5,353 C674.5,335 674.5,302.5 674.5,261.5 L674.5,186.5 C674.5,120.5 674.5,109 675,95.5 C676,81.5 678,73.5 691.5,71.5 C694.5,71 698.5,70.5 701.5,70.5 C705.5,70.5 707,68.5 707,67 C707,64 704,63.5 699,63.5 C684,63.5 656,65 654,65 C652,65 622.5,63.5 601.5,63.5 C597,63.5 594.5,64 594.5,67 C594.5,69 597,70.5 600.5,70.5 C604.5,70.5 609.5,71 613,71.5 C629.5,74.5 631.5,81.5 632.5,95 C633.5,108.5 633.5,120 633.5,186 L633.5,195 C633.5,197.5 632,197.5 630.5,197.5 L449.5,197.5 Z M828.5,261.5 C828.5,299 828.5,334.5 826,352.5 C824.5,364.5 823,374.5 814.5,376.5 C810.5,377.5 805,378 802.5,378 C798,378 796,379.5 796,381.5 C796,384 799.5,385 804,385 C818,385 847.5,383.5 849,383.5 C851.5,383.5 880.5,385 906,385 C911,385 913,383.5 913,381.5 C913,379.5 912,378.5 907.5,378 C905.5,378 895,377.5 888.5,376 C875.5,373 873.5,367.5 871.5,353 C869,335 869.5,300 869.5,261.5 L869.5,186.5 C869.5,120.5 869,109 870,95.5 C871,81 872.5,73.5 887,71.5 C890.5,71 893,71 896,70.5 C900,70 901.5,69 901.5,67 C901.5,64.5 899,63.5 894,63.5 C880,63.5 851,65 849,65 C847.5,65 819,63.5 803.5,63.5 C798,63.5 796,64.5 796,67 C796,69 798,70 801.5,70.5 C804.5,71 808,71 813,72 C823.5,74 826.5,81.5 827.5,95 C828.5,108.5 828.5,120.5 828.5,186.5 L828.5,261.5 Z M1011,322.5 C1011,359 1008.5,372.5 997.5,376 C991,378 985.5,378 982,378 C977,378 975,379.5 975,381.5 C975,384.5 978,385 982.5,385 C1004,385 1022.5,383.5 1026,383.5 C1029.5,383.5 1047.5,385 1074.5,385 C1080,385 1082.5,384 1082.5,381.5 C1082.5,379.5 1080.5,378 1076.5,378 C1072.5,378 1064,378 1056,376 C1043.5,373 1040.5,360 1039.5,325.5 L1033,130 C1045.5,143 1095.5,195 1147.5,249 C1191,291.5 1260.5,360.5 1262.5,361.5 C1287,384.5 1292,388 1295.5,388 C1299,388 1300,385.5 1300,360.5 L1301,109.5 C1301,79.5 1304.5,74.5 1316,72 C1321.5,71 1325.5,71 1328.5,70.5 C1331.5,70 1333,68.5 1333,66.5 C1333,64 1331.5,63.5 1326,63.5 C1306.5,63.5 1291,65 1286,65 C1281.5,65 1260.5,63.5 1239,63.5 C1234,63.5 1230,64 1230,66.5 C1230,68.5 1231,70.5 1236,70.5 C1239.5,70.5 1247,71 1255.5,72.5 C1269,76 1272,85 1272.5,112 L1278,320 C1265,308 1215,256.5 1176,218.5 C1106,147 1036.5,76 1032,71 C1028.5,67.5 1020,57.5 1016.5,57.5 C1012.5,57.5 1011,62.5 1011,78 C1011.5,161 1011,84 1011,322.5 L1011,322.5 Z M1485,186.5 C1485,120.5 1484.5,109 1485.5,95.5 C1486.5,81 1488,73.5 1502.5,71.5 C1506,71 1508.5,71 1511.5,70.5 C1515.5,70 1517,69 1517,67 C1517,64.5 1514.5,63.5 1509.5,63.5 C1495.5,63.5 1466.5,65 1464.5,65 C1463,65 1434.5,63.5 1419,63.5 C1413.5,63.5 1411.5,64.5 1411.5,67 C1411.5,69 1413.5,70 1417,70.5 C1420,71 1423.5,71 1428.5,72 C1439,74 1442,81.5 1443,95 C1444,108.5 1444,120.5 1444,186.5 L1444,261.5 C1444,299 1444,334.5 1441.5,352.5 C1440,364.5 1438.5,374.5 1430,376.5 C1426,377.5 1420.5,378 1418,378 C1413.5,378 1411.5,379.5 1411.5,381.5 C1411.5,384 1415,385 1419.5,385 C1433.5,385 1463,383.5 1464.5,383.5 C1467,383.5 1496,385 1521.5,385 C1526.5,385 1528.5,383.5 1528.5,381.5 C1528.5,379.5 1527.5,378.5 1523,378 C1521,378 1510.5,377.5 1504,376 C1491,373 1489,367.5 1487,353 C1484.5,335 1485,300 1485,261.5 L1485,222 C1524.5,268.5 1604.5,350.5 1627,366.5 C1647,380.5 1657,385 1696,385 L1728.5,385 C1734,385 1736.5,384 1736.5,382 C1736.5,379.5 1734,378.5 1729.5,378 C1721,377 1723.5,377.5 1718,376.5 C1698,372 1681,363 1646,331 C1625,312 1544,232 1517,204 C1539,184 1582.5,141.5 1619,108.5 C1645,85 1651.5,79.5 1663.5,75.5 C1669.5,73 1680,71 1688,70.5 C1692,70 1693.5,68.5 1693.5,66.5 C1693.5,64.5 1692.5,63.5 1685.5,63.5 C1679,63.5 1651.5,65 1636.5,65 C1620.5,65 1605.5,63.5 1602.5,63.5 C1598.5,63.5 1597.5,65 1597.5,66.5 C1597.5,68.5 1599.5,69.5 1603,70.5 C1609,72.5 1611,75 1611,78.5 C1611,84 1609,86.5 1585,113 C1562.5,137.5 1508,189.5 1485,210 L1485,186.5 Z M1841.5,152 C1841.5,74 1841.5,60 1842.5,44 C1843.5,26.5 1846.5,16.5 1860,15 C1864.5,14.5 1868.5,14 1872,14 C1875,14 1877.5,13 1877.5,11 C1877.5,8 1875,7 1869.5,7 C1854.5,7 1823,8.5 1820.5,8.5 C1818,8.5 1786,7 1763.5,7 C1758,7 1756,8.5 1756,10.5 C1756,12.5 1758,14 1761.5,14 C1766,14 1773,14.5 1777,15.5 C1793.5,19 1797.5,27 1798.5,44 C1799.5,60 1799.5,74 1799.5,152 L1799.5,296.5 C1799.5,425.5 1784,452 1751.5,485 C1747,489.5 1740,495.5 1734,499 C1729.5,502 1727,503.5 1727,506.5 C1727,508.5 1729,509.5 1730.5,509.5 C1732,509.5 1733,509 1734,508.5 C1739,506 1747,500.5 1753.5,496 C1794,468 1816,444.5 1826.5,419.5 C1841.5,384 1841.5,353 1841.5,272 L1841.5,152 Z M2041.5,392 C2068.5,392 2095.5,386 2117,371 C2151.5,346.5 2159.5,308.5 2159.5,288 C2159.5,248 2145.5,217 2086.5,170.5 L2072.5,159.5 C2024.5,122 2011.5,104 2011.5,75.5 C2011.5,39 2038.5,17.5 2073,17.5 C2119,17.5 2132.5,38.5 2135.5,44 C2138.5,49.5 2141.5,63 2142,69 C2142.5,73 2143,75.5 2146,75.5 C2148.5,75.5 2149.5,72 2149.5,64 C2149.5,30 2151.5,13.5 2151.5,11 C2151.5,8.5 2150.5,7.5 2146.5,7.5 C2142.5,7.5 2138.5,7 2129,5 C2116.5,2 2102,0 2082.5,0 C2019,0 1979,36.5 1979,90 C1979,124 1991,155 2044,198.5 L2066.5,217 C2109.5,252.5 2124,272.5 2124,307 C2124,339 2100.5,373.5 2052.5,373.5 C2019,373.5 1986,359.5 1978.5,322.5 C1977,315.5 1977,308.5 1977,304 C1977,300 1976.5,298.5 1973.5,298.5 C1971,298.5 1970,301 1969.5,306.5 C1969,314.5 1967,334.5 1967,359.5 C1967,373 1967.5,375 1974.5,378.5 C1995,388.5 2018,392 2041.5,392 L2041.5,392 Z" id="ThinkJS" fill="url(#radialGradient-1)"></path>
    </g>
</svg>